<?xml version="1.0" encoding="utf-8"?>
<!-- Generator: Adobe Illustrator 25.4.1, SVG Export Plug-In . SVG Version: 6.00 Build 0)  -->
<svg version="1.1" id="Capa_1" xmlns="http://www.w3.org/2000/svg" xmlns:xlink="http://www.w3.org/1999/xlink" x="0px" y="0px"
	 viewBox="0 0 942 942" style="enable-background:new 0 0 942 942;" xml:space="preserve">
<style type="text/css">
	.st0{fill:#D51E28;}
	.st1{fill:#16151C;}
</style>
<g>
	<g>
		<path class="st0" d="M579.1,894c0,26.5,21.5,48,48,48s48-21.5,48-48v-77.5h-95.9V894H579.1z"/>
		<path class="st0" d="M579.1,48v77.5H675V48c0-26.5-21.5-48-48-48S579.1,21.5,579.1,48z"/>
		<path class="st0" d="M423,48v77.5h96V48c0-26.5-21.5-48-48-48S423,21.5,423,48z"/>
		<path class="st0" d="M423,894c0,26.5,21.5,48,48,48s48-21.5,48-48v-77.5h-96V894z"/>
		<path class="st0" d="M267,48v77.5h95.9V48c0-26.5-21.5-48-48-48S267,21.5,267,48z"/>
		<path class="st0" d="M267,894c0,26.5,21.5,48,48,48s48-21.5,48-48v-77.5h-96V894z"/>
		<path class="st0" d="M0,627c0,26.5,21.5,48,48,48h77.5v-95.9H48C21.5,579.1,0,600.5,0,627z"/>
		<path class="st0" d="M894,579.1h-77.5V675H894c26.5,0,48-21.5,48-48S920.5,579.1,894,579.1z"/>
		<path class="st0" d="M0,471c0,26.5,21.5,48,48,48h77.5v-96H48C21.5,423,0,444.5,0,471z"/>
		<path class="st0" d="M894,423h-77.5v96H894c26.5,0,48-21.5,48-48S920.5,423,894,423z"/>
		<path class="st0" d="M0,315c0,26.5,21.5,48,48,48h77.5v-96H48C21.5,267,0,288.5,0,315z"/>
		<path class="st0" d="M894,267h-77.5v95.9H894c26.5,0,48-21.5,48-48S920.5,267,894,267z"/>
		<path class="st1" d="M171.6,720.4c0,27.6,22.4,50,50,50h498.8c27.6,0,50-22.4,50-50V221.6c0-27.6-22.4-50-50-50H221.6
			c-27.6,0-50,22.4-50,50V720.4z"/>
	</g>
</g>
<circle class="st0" cx="315" cy="315" r="47.9"/>
<circle class="st0" cx="627.1" cy="627" r="47.9"/>
</svg>
